<svg xmlns="http://www.w3.org/2000/svg" width="16" height="16" viewBox="0 0 16 16" shape-rendering="crispEdges">
<!-- Native LibreOffice tblsele source/mask pixels; MPL-2.0 and Apache-2.0. Derived from vcl/inc/unx/x11_cursors/tblsele_{curs,mask}.h. Copyright contributors to LibreOffice and the Apache Software Foundation. https://www.mozilla.org/MPL/2.0/ https://www.apache.org/licenses/LICENSE-2.0 -->
<rect x="9" y="3" width="1" height="1" fill="white"/>
<rect x="10" y="3" width="1" height="1" fill="white"/>
<rect x="9" y="4" width="1" height="1" fill="white"/>
<rect x="10" y="4" width="1" height="1" fill="black"/>
<rect x="11" y="4" width="1" height="1" fill="white"/>
<rect x="9" y="5" width="1" height="1" fill="white"/>
<rect x="10" y="5" width="1" height="1" fill="black"/>
<rect x="11" y="5" width="1" height="1" fill="black"/>
<rect x="12" y="5" width="1" height="1" fill="white"/>
<rect x="1" y="6" width="1" height="1" fill="white"/>
<rect x="2" y="6" width="1" height="1" fill="white"/>
<rect x="3" y="6" width="1" height="1" fill="white"/>
<rect x="4" y="6" width="1" height="1" fill="white"/>
<rect x="5" y="6" width="1" height="1" fill="white"/>
<rect x="6" y="6" width="1" height="1" fill="white"/>
<rect x="7" y="6" width="1" height="1" fill="white"/>
<rect x="8" y="6" width="1" height="1" fill="white"/>
<rect x="9" y="6" width="1" height="1" fill="white"/>
<rect x="10" y="6" width="1" height="1" fill="black"/>
<rect x="11" y="6" width="1" height="1" fill="black"/>
<rect x="12" y="6" width="1" height="1" fill="black"/>
<rect x="13" y="6" width="1" height="1" fill="white"/>
<rect x="1" y="7" width="1" height="1" fill="white"/>
<rect x="2" y="7" width="1" height="1" fill="black"/>
<rect x="3" y="7" width="1" height="1" fill="black"/>
<rect x="4" y="7" width="1" height="1" fill="black"/>
<rect x="5" y="7" width="1" height="1" fill="black"/>
<rect x="6" y="7" width="1" height="1" fill="black"/>
<rect x="7" y="7" width="1" height="1" fill="black"/>
<rect x="8" y="7" width="1" height="1" fill="black"/>
<rect x="9" y="7" width="1" height="1" fill="black"/>
<rect x="10" y="7" width="1" height="1" fill="black"/>
<rect x="11" y="7" width="1" height="1" fill="black"/>
<rect x="12" y="7" width="1" height="1" fill="black"/>
<rect x="13" y="7" width="1" height="1" fill="black"/>
<rect x="14" y="7" width="1" height="1" fill="white"/>
<rect x="1" y="8" width="1" height="1" fill="white"/>
<rect x="2" y="8" width="1" height="1" fill="black"/>
<rect x="3" y="8" width="1" height="1" fill="black"/>
<rect x="4" y="8" width="1" height="1" fill="black"/>
<rect x="5" y="8" width="1" height="1" fill="black"/>
<rect x="6" y="8" width="1" height="1" fill="black"/>
<rect x="7" y="8" width="1" height="1" fill="black"/>
<rect x="8" y="8" width="1" height="1" fill="black"/>
<rect x="9" y="8" width="1" height="1" fill="black"/>
<rect x="10" y="8" width="1" height="1" fill="black"/>
<rect x="11" y="8" width="1" height="1" fill="black"/>
<rect x="12" y="8" width="1" height="1" fill="black"/>
<rect x="13" y="8" width="1" height="1" fill="black"/>
<rect x="14" y="8" width="1" height="1" fill="black"/>
<rect x="15" y="8" width="1" height="1" fill="white"/>
<rect x="1" y="9" width="1" height="1" fill="white"/>
<rect x="2" y="9" width="1" height="1" fill="black"/>
<rect x="3" y="9" width="1" height="1" fill="black"/>
<rect x="4" y="9" width="1" height="1" fill="black"/>
<rect x="5" y="9" width="1" height="1" fill="black"/>
<rect x="6" y="9" width="1" height="1" fill="black"/>
<rect x="7" y="9" width="1" height="1" fill="black"/>
<rect x="8" y="9" width="1" height="1" fill="black"/>
<rect x="9" y="9" width="1" height="1" fill="black"/>
<rect x="10" y="9" width="1" height="1" fill="black"/>
<rect x="11" y="9" width="1" height="1" fill="black"/>
<rect x="12" y="9" width="1" height="1" fill="black"/>
<rect x="13" y="9" width="1" height="1" fill="black"/>
<rect x="14" y="9" width="1" height="1" fill="white"/>
<rect x="1" y="10" width="1" height="1" fill="white"/>
<rect x="2" y="10" width="1" height="1" fill="white"/>
<rect x="3" y="10" width="1" height="1" fill="white"/>
<rect x="4" y="10" width="1" height="1" fill="white"/>
<rect x="5" y="10" width="1" height="1" fill="white"/>
<rect x="6" y="10" width="1" height="1" fill="white"/>
<rect x="7" y="10" width="1" height="1" fill="white"/>
<rect x="8" y="10" width="1" height="1" fill="white"/>
<rect x="9" y="10" width="1" height="1" fill="white"/>
<rect x="10" y="10" width="1" height="1" fill="black"/>
<rect x="11" y="10" width="1" height="1" fill="black"/>
<rect x="12" y="10" width="1" height="1" fill="black"/>
<rect x="13" y="10" width="1" height="1" fill="white"/>
<rect x="9" y="11" width="1" height="1" fill="white"/>
<rect x="10" y="11" width="1" height="1" fill="black"/>
<rect x="11" y="11" width="1" height="1" fill="black"/>
<rect x="12" y="11" width="1" height="1" fill="white"/>
<rect x="9" y="12" width="1" height="1" fill="white"/>
<rect x="10" y="12" width="1" height="1" fill="black"/>
<rect x="11" y="12" width="1" height="1" fill="white"/>
<rect x="9" y="13" width="1" height="1" fill="white"/>
<rect x="10" y="13" width="1" height="1" fill="white"/>
</svg>
